<svg xmlns="http://www.w3.org/2000/svg" width="1244" height="426" viewBox="0 0 1244 426" font-family="'Microsoft YaHei', 'SimHei', 'PingFang SC', sans-serif">
<rect x="0" y="0" width="1244" height="426" fill="#ffffff"/>
<defs>
    <marker id="arrowCrit" viewBox="0 0 10 10" refX="9" refY="5" markerWidth="7" markerHeight="7" orient="auto-start-reverse">
      <path d="M0 0 L10 5 L0 10 z" fill="#d32f2f"/>
    </marker>
    <marker id="arrowNorm" viewBox="0 0 10 10" refX="9" refY="5" markerWidth="7" markerHeight="7" orient="auto-start-reverse">
      <path d="M0 0 L10 5 L0 10 z" fill="#1976d2"/>
    </marker>
  </defs>
<text x="60" y="30" font-size="20" font-weight="bold" fill="#263238">某办公楼建设项目 — 单代号时标网络进度计划图</text>
<text x="60" y="52" font-size="12" fill="#78909c">计划工期 92 天（09-15 ~ 12-16）｜合同工期 100 天｜关键线路：A1 → A2 → A3 → A4 → A5 → A6 → A7 → A11 → A13</text>
<line x1="60" y1="88" x2="60" y2="394" stroke="#e3e8ee" stroke-width="1"/>
<line x1="60" y1="88" x2="60" y2="92" stroke="#546e7a" stroke-width="1"/>
<text x="60" y="68" font-size="10" fill="#546e7a" text-anchor="middle">09-15</text>
<text x="60" y="81" font-size="9" fill="#78909c" text-anchor="middle">D0</text>
<line x1="144" y1="88" x2="144" y2="394" stroke="#e3e8ee" stroke-width="1"/>
<line x1="144" y1="88" x2="144" y2="92" stroke="#546e7a" stroke-width="1"/>
<text x="144" y="68" font-size="10" fill="#546e7a" text-anchor="middle">09-22</text>
<text x="144" y="81" font-size="9" fill="#78909c" text-anchor="middle">D7</text>
<line x1="228" y1="88" x2="228" y2="394" stroke="#e3e8ee" stroke-width="1"/>
<line x1="228" y1="88" x2="228" y2="92" stroke="#546e7a" stroke-width="1"/>
<text x="228" y="68" font-size="10" fill="#546e7a" text-anchor="middle">09-29</text>
<text x="228" y="81" font-size="9" fill="#78909c" text-anchor="middle">D14</text>
<line x1="312" y1="88" x2="312" y2="394" stroke="#e3e8ee" stroke-width="1"/>
<line x1="312" y1="88" x2="312" y2="92" stroke="#546e7a" stroke-width="1"/>
<text x="312" y="68" font-size="10" fill="#546e7a" text-anchor="middle">10-06</text>
<text x="312" y="81" font-size="9" fill="#78909c" text-anchor="middle">D21</text>
<line x1="396" y1="88" x2="396" y2="394" stroke="#e3e8ee" stroke-width="1"/>
<line x1="396" y1="88" x2="396" y2="92" stroke="#546e7a" stroke-width="1"/>
<text x="396" y="68" font-size="10" fill="#546e7a" text-anchor="middle">10-13</text>
<text x="396" y="81" font-size="9" fill="#78909c" text-anchor="middle">D28</text>
<line x1="480" y1="88" x2="480" y2="394" stroke="#e3e8ee" stroke-width="1"/>
<line x1="480" y1="88" x2="480" y2="92" stroke="#546e7a" stroke-width="1"/>
<text x="480" y="68" font-size="10" fill="#546e7a" text-anchor="middle">10-20</text>
<text x="480" y="81" font-size="9" fill="#78909c" text-anchor="middle">D35</text>
<line x1="564" y1="88" x2="564" y2="394" stroke="#e3e8ee" stroke-width="1"/>
<line x1="564" y1="88" x2="564" y2="92" stroke="#546e7a" stroke-width="1"/>
<text x="564" y="68" font-size="10" fill="#546e7a" text-anchor="middle">10-27</text>
<text x="564" y="81" font-size="9" fill="#78909c" text-anchor="middle">D42</text>
<line x1="648" y1="88" x2="648" y2="394" stroke="#e3e8ee" stroke-width="1"/>
<line x1="648" y1="88" x2="648" y2="92" stroke="#546e7a" stroke-width="1"/>
<text x="648" y="68" font-size="10" fill="#546e7a" text-anchor="middle">11-03</text>
<text x="648" y="81" font-size="9" fill="#78909c" text-anchor="middle">D49</text>
<line x1="732" y1="88" x2="732" y2="394" stroke="#e3e8ee" stroke-width="1"/>
<line x1="732" y1="88" x2="732" y2="92" stroke="#546e7a" stroke-width="1"/>
<text x="732" y="68" font-size="10" fill="#546e7a" text-anchor="middle">11-10</text>
<text x="732" y="81" font-size="9" fill="#78909c" text-anchor="middle">D56</text>
<line x1="816" y1="88" x2="816" y2="394" stroke="#e3e8ee" stroke-width="1"/>
<line x1="816" y1="88" x2="816" y2="92" stroke="#546e7a" stroke-width="1"/>
<text x="816" y="68" font-size="10" fill="#546e7a" text-anchor="middle">11-17</text>
<text x="816" y="81" font-size="9" fill="#78909c" text-anchor="middle">D63</text>
<line x1="900" y1="88" x2="900" y2="394" stroke="#e3e8ee" stroke-width="1"/>
<line x1="900" y1="88" x2="900" y2="92" stroke="#546e7a" stroke-width="1"/>
<text x="900" y="68" font-size="10" fill="#546e7a" text-anchor="middle">11-24</text>
<text x="900" y="81" font-size="9" fill="#78909c" text-anchor="middle">D70</text>
<line x1="984" y1="88" x2="984" y2="394" stroke="#e3e8ee" stroke-width="1"/>
<line x1="984" y1="88" x2="984" y2="92" stroke="#546e7a" stroke-width="1"/>
<text x="984" y="68" font-size="10" fill="#546e7a" text-anchor="middle">12-01</text>
<text x="984" y="81" font-size="9" fill="#78909c" text-anchor="middle">D77</text>
<line x1="1068" y1="88" x2="1068" y2="394" stroke="#e3e8ee" stroke-width="1"/>
<line x1="1068" y1="88" x2="1068" y2="92" stroke="#546e7a" stroke-width="1"/>
<text x="1068" y="68" font-size="10" fill="#546e7a" text-anchor="middle">12-08</text>
<text x="1068" y="81" font-size="9" fill="#78909c" text-anchor="middle">D84</text>
<line x1="1152" y1="88" x2="1152" y2="394" stroke="#e3e8ee" stroke-width="1"/>
<line x1="1152" y1="88" x2="1152" y2="92" stroke="#546e7a" stroke-width="1"/>
<text x="1152" y="68" font-size="10" fill="#546e7a" text-anchor="middle">12-15</text>
<text x="1152" y="81" font-size="9" fill="#78909c" text-anchor="middle">D91</text>
<line x1="1164" y1="88" x2="1164" y2="394" stroke="#e3e8ee" stroke-width="1"/>
<text x="1164" y="68" font-size="10" fill="#546e7a" text-anchor="middle">12-16</text>
<text x="1164" y="81" font-size="9" fill="#78909c" text-anchor="middle">D92</text>
<path d="M 60 234 L 67 241 L 60 248 L 53 241 Z" fill="#37474f" stroke="#37474f" stroke-width="1.5"/>
<text x="60" y="266" font-size="10" fill="#263238" text-anchor="middle">开始</text>
<path d="M 1164 234 L 1171 241 L 1164 248 L 1157 241 Z" fill="#37474f" stroke="#37474f" stroke-width="1.5"/>
<text x="1164" y="266" font-size="10" fill="#263238" text-anchor="middle">结束</text>
<path d="M 60 88 L 66 78 L 54 78 Z" fill="#ffd54f" stroke="#455a64" stroke-width="1"/>
<text x="60" y="72" font-size="10" fill="#455a64" text-anchor="middle">开工</text>
<path d="M 732 88 L 738 78 L 726 78 Z" fill="#ffd54f" stroke="#455a64" stroke-width="1"/>
<text x="732" y="72" font-size="10" fill="#455a64" text-anchor="middle">主体结构封顶</text>
<path d="M 1164 88 L 1170 78 L 1158 78 Z" fill="#ffd54f" stroke="#455a64" stroke-width="1"/>
<text x="1164" y="72" font-size="10" fill="#455a64" text-anchor="middle">竣工交付</text>
<path d="M 828.0 290.0 L 831.9 286.5 L 835.9 290.0 L 839.8 286.5 L 843.8 290.0 L 847.7 286.5 L 851.6 290.0 L 855.6 286.5 L 859.5 290.0 L 863.4 286.5 L 867.4 290.0 L 871.3 286.5 L 875.3 290.0 L 879.2 286.5 L 883.1 290.0 L 887.1 286.5 L 891.0 290.0 L 894.9 286.5 L 898.9 290.0 L 902.8 286.5 L 906.8 290.0 L 910.7 286.5 L 914.6 290.0 L 918.6 286.5 L 922.5 290.0 L 926.4 286.5 L 930.4 290.0 L 934.3 286.5 L 938.3 290.0 L 942.2 286.5 L 946.1 290.0 L 950.1 286.5 L 954.0 290.0 L 957.9 286.5 L 961.9 290.0 L 965.8 286.5 L 969.8 290.0 L 973.7 286.5 L 977.6 290.0 L 981.6 286.5 L 985.5 290.0 L 989.4 286.5 L 993.4 290.0 L 997.3 286.5 L 1001.3 290.0 L 1005.2 286.5 L 1009.1 290.0 L 1013.1 286.5 L 1017.0 290.0 L 1020.9 286.5 L 1024.9 290.0 L 1028.8 286.5 L 1032.8 290.0 L 1036.7 286.5 L 1040.6 290.0 L 1044.6 286.5 L 1048.5 290.0 L 1052.4 286.5 L 1056.4 290.0 L 1060.3 286.5 L 1064.3 290.0 L 1068.2 286.5 L 1072.1 290.0 L 1076.1 286.5 L 1080.0 290.0" fill="none" stroke="#f57c00" stroke-width="1.6"/>
<path d="M 972.0 116.0 L 975.9 112.5 L 979.7 116.0 L 983.6 112.5 L 987.4 116.0 L 991.3 112.5 L 995.1 116.0 L 999.0 112.5 L 1002.9 116.0 L 1006.7 112.5 L 1010.6 116.0 L 1014.4 112.5 L 1018.3 116.0 L 1022.1 112.5 L 1026.0 116.0 L 1029.9 112.5 L 1033.7 116.0 L 1037.6 112.5 L 1041.4 116.0 L 1045.3 112.5 L 1049.1 116.0 L 1053.0 112.5 L 1056.9 116.0 L 1060.7 112.5 L 1064.6 116.0 L 1068.4 112.5 L 1072.3 116.0 L 1076.1 112.5 L 1080.0 116.0" fill="none" stroke="#f57c00" stroke-width="1.6"/>
<path d="M 876.0 232.0 L 879.0 228.5 L 882.0 232.0 L 885.0 228.5 L 888.0 232.0" fill="none" stroke="#f57c00" stroke-width="1.6"/>
<path d="M 828.0 348.0 L 831.9 344.5 L 835.9 348.0 L 839.8 344.5 L 843.8 348.0 L 847.7 344.5 L 851.6 348.0 L 855.6 344.5 L 859.5 348.0 L 863.4 344.5 L 867.4 348.0 L 871.3 344.5 L 875.3 348.0 L 879.2 344.5 L 883.1 348.0 L 887.1 344.5 L 891.0 348.0 L 894.9 344.5 L 898.9 348.0 L 902.8 344.5 L 906.8 348.0 L 910.7 344.5 L 914.6 348.0 L 918.6 344.5 L 922.5 348.0 L 926.4 344.5 L 930.4 348.0 L 934.3 344.5 L 938.3 348.0 L 942.2 344.5 L 946.1 348.0 L 950.1 344.5 L 954.0 348.0 L 957.9 344.5 L 961.9 348.0 L 965.8 344.5 L 969.8 348.0 L 973.7 344.5 L 977.6 348.0 L 981.6 344.5 L 985.5 348.0 L 989.4 344.5 L 993.4 348.0 L 997.3 344.5 L 1001.3 348.0 L 1005.2 344.5 L 1009.1 348.0 L 1013.1 344.5 L 1017.0 348.0 L 1020.9 344.5 L 1024.9 348.0 L 1028.8 344.5 L 1032.8 348.0 L 1036.7 344.5 L 1040.6 348.0 L 1044.6 344.5 L 1048.5 348.0 L 1052.4 344.5 L 1056.4 348.0 L 1060.3 344.5 L 1064.3 348.0 L 1068.2 344.5 L 1072.1 348.0 L 1076.1 344.5 L 1080.0 348.0" fill="none" stroke="#f57c00" stroke-width="1.6"/>
<rect x="60.0" y="96.0" width="60.0" height="40" rx="4" fill="#fdecea" stroke="#d32f2f" stroke-width="2"/>
<text x="90.0" y="113" font-size="11" fill="#263238" text-anchor="middle">施工准备</text>
<text x="90.0" y="128" font-size="10" fill="#d32f2f" text-anchor="middle">5天</text>
<rect x="120.0" y="96.0" width="156.0" height="40" rx="4" fill="#fdecea" stroke="#d32f2f" stroke-width="2"/>
<text x="198.0" y="113" font-size="11" fill="#263238" text-anchor="middle">土方开挖</text>
<text x="198.0" y="128" font-size="10" fill="#d32f2f" text-anchor="middle">13天</text>
<rect x="276.0" y="96.0" width="60.0" height="40" rx="4" fill="#fdecea" stroke="#d32f2f" stroke-width="2"/>
<text x="306.0" y="113" font-size="11" fill="#263238" text-anchor="middle">基础垫层</text>
<text x="306.0" y="128" font-size="10" fill="#d32f2f" text-anchor="middle">5天</text>
<rect x="336.0" y="96.0" width="108.0" height="40" rx="4" fill="#fdecea" stroke="#d32f2f" stroke-width="2"/>
<text x="390.0" y="113" font-size="11" fill="#263238" text-anchor="middle">基础及地下结构</text>
<text x="390.0" y="128" font-size="10" fill="#d32f2f" text-anchor="middle">9天</text>
<rect x="444.0" y="96.0" width="144.0" height="40" rx="4" fill="#fdecea" stroke="#d32f2f" stroke-width="2"/>
<text x="516.0" y="113" font-size="11" fill="#263238" text-anchor="middle">主体结构(1-3层)</text>
<text x="516.0" y="128" font-size="10" fill="#d32f2f" text-anchor="middle">12天</text>
<rect x="588.0" y="96.0" width="144.0" height="40" rx="4" fill="#fdecea" stroke="#d32f2f" stroke-width="2"/>
<text x="660.0" y="113" font-size="11" fill="#263238" text-anchor="middle">主体结构(4-6层)</text>
<text x="660.0" y="128" font-size="10" fill="#d32f2f" text-anchor="middle">12天</text>
<rect x="732.0" y="154.0" width="156.0" height="40" rx="4" fill="#fdecea" stroke="#d32f2f" stroke-width="2"/>
<text x="810.0" y="171" font-size="11" fill="#263238" text-anchor="middle">二次结构砌筑</text>
<text x="810.0" y="186" font-size="10" fill="#d32f2f" text-anchor="middle">13天</text>
<rect x="732.0" y="270.0" width="96.0" height="40" rx="4" fill="#e8f1fb" stroke="#1976d2" stroke-width="1.3"/>
<text x="780.0" y="287" font-size="11" fill="#263238" text-anchor="middle">屋面工程</text>
<text x="780.0" y="302" font-size="10" fill="#1976d2" text-anchor="middle">8天</text>
<rect x="732.0" y="96.0" width="240.0" height="40" rx="4" fill="#e8f1fb" stroke="#1976d2" stroke-width="1.3"/>
<text x="852.0" y="113" font-size="11" fill="#263238" text-anchor="middle">外立面幕墙</text>
<text x="852.0" y="128" font-size="10" fill="#1976d2" text-anchor="middle">20天</text>
<rect x="732.0" y="212.0" width="144.0" height="40" rx="4" fill="#e8f1fb" stroke="#1976d2" stroke-width="1.3"/>
<text x="804.0" y="229" font-size="11" fill="#263238" text-anchor="middle">机电安装</text>
<text x="804.0" y="244" font-size="10" fill="#1976d2" text-anchor="middle">12天</text>
<rect x="888.0" y="154.0" width="192.0" height="40" rx="4" fill="#fdecea" stroke="#d32f2f" stroke-width="2"/>
<text x="984.0" y="171" font-size="11" fill="#263238" text-anchor="middle">室内精装修</text>
<text x="984.0" y="186" font-size="10" fill="#d32f2f" text-anchor="middle">16天</text>
<rect x="732.0" y="328.0" width="96.0" height="40" rx="4" fill="#e8f1fb" stroke="#1976d2" stroke-width="1.3"/>
<text x="780.0" y="345" font-size="11" fill="#263238" text-anchor="middle">室外工程</text>
<text x="780.0" y="360" font-size="10" fill="#1976d2" text-anchor="middle">8天</text>
<rect x="1080.0" y="96.0" width="84.0" height="40" rx="4" fill="#fdecea" stroke="#d32f2f" stroke-width="2"/>
<text x="1122.0" y="113" font-size="11" fill="#263238" text-anchor="middle">竣工验收</text>
<text x="1122.0" y="128" font-size="10" fill="#d32f2f" text-anchor="middle">7天</text>
<line x1="276.0" y1="116.0" x2="60.0" y2="116.0" stroke="#d32f2f" stroke-width="2" marker-end="url(#arrowCrit)"/>
<line x1="336.0" y1="116.0" x2="120.0" y2="116.0" stroke="#d32f2f" stroke-width="2" marker-end="url(#arrowCrit)"/>
<line x1="444.0" y1="116.0" x2="276.0" y2="116.0" stroke="#d32f2f" stroke-width="2" marker-end="url(#arrowCrit)"/>
<line x1="588.0" y1="116.0" x2="336.0" y2="116.0" stroke="#d32f2f" stroke-width="2" marker-end="url(#arrowCrit)"/>
<line x1="732.0" y1="116.0" x2="444.0" y2="116.0" stroke="#d32f2f" stroke-width="2" marker-end="url(#arrowCrit)"/>
<path d="M 888.0 174.0 L 896.0 174.0 L 896.0 116.0 L 588.0 116.0" fill="none" stroke="#d32f2f" stroke-width="2" marker-end="url(#arrowCrit)"/>
<path d="M 1080.0 290.0 L 1088.0 290.0 L 1088.0 116.0 L 588.0 116.0" fill="none" stroke="#1976d2" stroke-width="1.4" marker-end="url(#arrowNorm)"/>
<line x1="1080.0" y1="116.0" x2="588.0" y2="116.0" stroke="#1976d2" stroke-width="1.4" marker-end="url(#arrowNorm)"/>
<path d="M 888.0 232.0 L 896.0 232.0 L 896.0 116.0 L 588.0 116.0" fill="none" stroke="#1976d2" stroke-width="1.4" marker-end="url(#arrowNorm)"/>
<line x1="1080.0" y1="174.0" x2="732.0" y2="174.0" stroke="#d32f2f" stroke-width="2" marker-end="url(#arrowCrit)"/>
<path d="M 1080.0 174.0 L 1088.0 174.0 L 1088.0 232.0 L 732.0 232.0" fill="none" stroke="#d32f2f" stroke-width="2" marker-end="url(#arrowCrit)"/>
<path d="M 1080.0 348.0 L 1088.0 348.0 L 1088.0 116.0 L 588.0 116.0" fill="none" stroke="#1976d2" stroke-width="1.4" marker-end="url(#arrowNorm)"/>
<path d="M 1164.0 116.0 L 1172.0 116.0 L 1172.0 290.0 L 732.0 290.0" fill="none" stroke="#d32f2f" stroke-width="2" marker-end="url(#arrowCrit)"/>
<line x1="1164.0" y1="116.0" x2="732.0" y2="116.0" stroke="#d32f2f" stroke-width="2" marker-end="url(#arrowCrit)"/>
<path d="M 1164.0 116.0 L 1172.0 116.0 L 1172.0 174.0 L 888.0 174.0" fill="none" stroke="#d32f2f" stroke-width="2" marker-end="url(#arrowCrit)"/>
<path d="M 1164.0 116.0 L 1172.0 116.0 L 1172.0 348.0 L 732.0 348.0" fill="none" stroke="#d32f2f" stroke-width="2" marker-end="url(#arrowCrit)"/>
<rect x="60" y="396" width="14" height="14" rx="3" fill="#fdecea" stroke="#d32f2f" stroke-width="2"/>
<text x="80" y="408" font-size="11" fill="#263238">关键工作（红色）</text>
<rect x="210" y="396" width="14" height="14" rx="3" fill="#e8f1fb" stroke="#1976d2"/>
<text x="230" y="408" font-size="11" fill="#263238">非关键工作</text>
<path d="M 350.0 403.0 L 354.0 399.5 L 358.0 403.0 L 362.0 399.5 L 366.0 403.0 L 370.0 399.5 L 374.0 403.0 L 378.0 399.5 L 382.0 403.0 L 386.0 399.5 L 390.0 403.0" fill="none" stroke="#f57c00" stroke-width="1.6"/>
<text x="396" y="408" font-size="11" fill="#263238">自由时差（波浪线）</text>
<line x1="530" y1="403" x2="570" y2="403" stroke="#d32f2f" stroke-width="2" marker-end="url(#arrowCrit)"/>
<text x="578" y="408" font-size="11" fill="#263238">关键线路</text>
</svg>